<mxfile host="app.diagrams.net" modified="2023-11-14T15:54:48.643Z" agent="Mozilla/5.0 (Windows NT 10.0; Win64; x64) AppleWebKit/537.36 (KHTML, like Gecko) Chrome/116.0.5845.837 YaBrowser/23.9.4.837 Yowser/2.5 Safari/537.36" etag="068JvobZICNEHwG1G0r8" version="22.1.0" type="github">
  <diagram name="Страница — 1" id="XEgX0MnuMKTLrkzmrzd0">
    <mxGraphModel dx="1434" dy="783" grid="1" gridSize="10" guides="1" tooltips="1" connect="1" arrows="1" fold="1" page="1" pageScale="1" pageWidth="827" pageHeight="1169" math="0" shadow="0">
      <root>
        <mxCell id="0" />
        <mxCell id="1" parent="0" />
        <mxCell id="SOTFwr9_-o32v2x81HMP-1" value="" style="ellipse;html=1;shape=endState;fillColor=#000000;strokeColor=#ff0000;" vertex="1" parent="1">
          <mxGeometry x="1190" y="240" width="30" height="30" as="geometry" />
        </mxCell>
        <mxCell id="SOTFwr9_-o32v2x81HMP-2" value="" style="ellipse;html=1;shape=startState;fillColor=#000000;strokeColor=#ff0000;" vertex="1" parent="1">
          <mxGeometry x="10" y="240" width="30" height="30" as="geometry" />
        </mxCell>
        <mxCell id="SOTFwr9_-o32v2x81HMP-3" value="" style="edgeStyle=orthogonalEdgeStyle;html=1;verticalAlign=bottom;endArrow=open;endSize=8;strokeColor=#ff0000;rounded=0;" edge="1" source="SOTFwr9_-o32v2x81HMP-2" parent="1" target="SOTFwr9_-o32v2x81HMP-4">
          <mxGeometry relative="1" as="geometry">
            <mxPoint x="160" y="280" as="targetPoint" />
          </mxGeometry>
        </mxCell>
        <mxCell id="SOTFwr9_-o32v2x81HMP-12" style="edgeStyle=orthogonalEdgeStyle;rounded=0;orthogonalLoop=1;jettySize=auto;html=1;exitX=0.5;exitY=1;exitDx=0;exitDy=0;entryX=0.5;entryY=1;entryDx=0;entryDy=0;" edge="1" parent="1" target="SOTFwr9_-o32v2x81HMP-1">
          <mxGeometry relative="1" as="geometry">
            <mxPoint x="170" y="282.5" as="sourcePoint" />
            <mxPoint x="1300" y="257.5" as="targetPoint" />
            <Array as="points">
              <mxPoint x="170" y="360" />
              <mxPoint x="1205" y="360" />
            </Array>
          </mxGeometry>
        </mxCell>
        <mxCell id="SOTFwr9_-o32v2x81HMP-4" value="Бездействие" style="rounded=1;whiteSpace=wrap;html=1;fillColor=#fff2cc;strokeColor=#D66262;" vertex="1" parent="1">
          <mxGeometry x="95" y="227.5" width="140" height="55" as="geometry" />
        </mxCell>
        <mxCell id="SOTFwr9_-o32v2x81HMP-10" style="edgeStyle=orthogonalEdgeStyle;rounded=0;orthogonalLoop=1;jettySize=auto;html=1;exitX=1;exitY=0.5;exitDx=0;exitDy=0;entryX=0;entryY=0.5;entryDx=0;entryDy=0;" edge="1" parent="1" source="SOTFwr9_-o32v2x81HMP-6" target="SOTFwr9_-o32v2x81HMP-7">
          <mxGeometry relative="1" as="geometry" />
        </mxCell>
        <mxCell id="SOTFwr9_-o32v2x81HMP-6" value="Выбор видео" style="rounded=1;whiteSpace=wrap;html=1;fillColor=#fff2cc;strokeColor=#D66262;" vertex="1" parent="1">
          <mxGeometry x="380" y="130" width="140" height="55" as="geometry" />
        </mxCell>
        <mxCell id="SOTFwr9_-o32v2x81HMP-11" style="edgeStyle=orthogonalEdgeStyle;rounded=0;orthogonalLoop=1;jettySize=auto;html=1;exitX=1;exitY=0.5;exitDx=0;exitDy=0;entryX=0;entryY=0.5;entryDx=0;entryDy=0;" edge="1" parent="1" source="SOTFwr9_-o32v2x81HMP-7" target="SOTFwr9_-o32v2x81HMP-8">
          <mxGeometry relative="1" as="geometry" />
        </mxCell>
        <mxCell id="SOTFwr9_-o32v2x81HMP-7" value="Просмотр видео" style="rounded=1;whiteSpace=wrap;html=1;fillColor=#fff2cc;strokeColor=#D66262;" vertex="1" parent="1">
          <mxGeometry x="650" y="130" width="140" height="55" as="geometry" />
        </mxCell>
        <mxCell id="SOTFwr9_-o32v2x81HMP-18" style="edgeStyle=orthogonalEdgeStyle;rounded=0;orthogonalLoop=1;jettySize=auto;html=1;exitX=0.25;exitY=1;exitDx=0;exitDy=0;entryX=0.5;entryY=1;entryDx=0;entryDy=0;" edge="1" parent="1" source="SOTFwr9_-o32v2x81HMP-8" target="SOTFwr9_-o32v2x81HMP-6">
          <mxGeometry relative="1" as="geometry">
            <Array as="points">
              <mxPoint x="955" y="220" />
              <mxPoint x="450" y="220" />
            </Array>
          </mxGeometry>
        </mxCell>
        <mxCell id="SOTFwr9_-o32v2x81HMP-8" value="Выключение видео" style="rounded=1;whiteSpace=wrap;html=1;fillColor=#fff2cc;strokeColor=#D66262;" vertex="1" parent="1">
          <mxGeometry x="920" y="130" width="140" height="55" as="geometry" />
        </mxCell>
        <mxCell id="SOTFwr9_-o32v2x81HMP-9" value="" style="endArrow=classic;html=1;rounded=0;exitX=0.5;exitY=0;exitDx=0;exitDy=0;entryX=0;entryY=0.5;entryDx=0;entryDy=0;" edge="1" parent="1" source="SOTFwr9_-o32v2x81HMP-4" target="SOTFwr9_-o32v2x81HMP-6">
          <mxGeometry width="50" height="50" relative="1" as="geometry">
            <mxPoint x="390" y="430" as="sourcePoint" />
            <mxPoint x="440" y="380" as="targetPoint" />
            <Array as="points">
              <mxPoint x="165" y="158" />
            </Array>
          </mxGeometry>
        </mxCell>
        <mxCell id="SOTFwr9_-o32v2x81HMP-13" value="Выход" style="text;html=1;align=center;verticalAlign=middle;resizable=0;points=[];autosize=1;strokeColor=none;fillColor=none;rotation=0;" vertex="1" parent="1">
          <mxGeometry x="680" y="330" width="60" height="30" as="geometry" />
        </mxCell>
        <mxCell id="SOTFwr9_-o32v2x81HMP-14" value="Включить видео" style="text;html=1;align=center;verticalAlign=middle;resizable=0;points=[];autosize=1;strokeColor=none;fillColor=none;" vertex="1" parent="1">
          <mxGeometry x="190" y="130" width="110" height="30" as="geometry" />
        </mxCell>
        <mxCell id="SOTFwr9_-o32v2x81HMP-15" value="Видео запущенно&amp;nbsp;" style="text;html=1;align=center;verticalAlign=middle;resizable=0;points=[];autosize=1;strokeColor=none;fillColor=none;" vertex="1" parent="1">
          <mxGeometry x="520" y="130" width="130" height="30" as="geometry" />
        </mxCell>
        <mxCell id="SOTFwr9_-o32v2x81HMP-16" value="Видео закончилось" style="text;html=1;align=center;verticalAlign=middle;resizable=0;points=[];autosize=1;strokeColor=none;fillColor=none;" vertex="1" parent="1">
          <mxGeometry x="790" y="130" width="130" height="30" as="geometry" />
        </mxCell>
        <mxCell id="SOTFwr9_-o32v2x81HMP-19" value="Выбор нового видео" style="text;html=1;align=center;verticalAlign=middle;resizable=0;points=[];autosize=1;strokeColor=none;fillColor=none;" vertex="1" parent="1">
          <mxGeometry x="630" y="197.5" width="140" height="30" as="geometry" />
        </mxCell>
        <mxCell id="SOTFwr9_-o32v2x81HMP-20" value="Видео не выбрано&amp;nbsp;" style="text;html=1;align=center;verticalAlign=middle;resizable=0;points=[];autosize=1;strokeColor=none;fillColor=none;" vertex="1" parent="1">
          <mxGeometry x="620" y="240" width="130" height="30" as="geometry" />
        </mxCell>
        <mxCell id="SOTFwr9_-o32v2x81HMP-22" value="" style="endArrow=classic;html=1;rounded=0;exitX=1;exitY=0.5;exitDx=0;exitDy=0;entryX=0.5;entryY=0;entryDx=0;entryDy=0;" edge="1" parent="1" source="SOTFwr9_-o32v2x81HMP-8" target="SOTFwr9_-o32v2x81HMP-1">
          <mxGeometry width="50" height="50" relative="1" as="geometry">
            <mxPoint x="700" y="380" as="sourcePoint" />
            <mxPoint x="750" y="330" as="targetPoint" />
            <Array as="points">
              <mxPoint x="1205" y="158" />
            </Array>
          </mxGeometry>
        </mxCell>
      </root>
    </mxGraphModel>
  </diagram>
</mxfile>
